<svg width="40" height="40" viewBox="0 0 40 40" fill="none" xmlns="http://www.w3.org/2000/svg">
<g clip-path="url(#clip0_70_16)">
<path fill-rule="evenodd" clip-rule="evenodd" d="M31.642 28.2422C31.16 29.6066 29.244 30.7353 27.716 31.0654C26.67 31.2875 25.306 31.4632 20.71 29.5586C15.548 27.42 8.38 19.8019 8.38 14.7324C8.38 12.1516 9.868 9.14648 12.47 9.14648C13.722 9.14648 13.998 9.1709 14.41 10.1592C14.892 11.3235 16.068 14.1922 16.208 14.4863C16.786 15.6927 15.62 16.3989 14.774 17.4492C14.504 17.7653 14.198 18.1072 14.54 18.6953C14.88 19.2715 16.056 21.1881 17.784 22.7266C20.016 24.7152 21.826 25.35 22.474 25.6201C22.956 25.8202 23.532 25.7736 23.884 25.3975C24.33 24.9153 24.884 24.1154 25.448 23.3271C25.846 22.763 26.352 22.6925 26.882 22.8926C27.24 23.0166 31.79 25.1297 31.982 25.4678C32.124 25.7139 32.124 26.8778 31.642 28.2422ZM20.004 0H19.994C8.96799 0 0 8.9707 0 20C0 24.3733 1.41001 28.4307 3.80801 31.7217L1.31601 39.1533L9.00201 36.6973C12.164 38.7899 15.938 40 20.004 40C31.03 40 40 31.0293 40 20C40 8.9707 31.03 0 20.004 0Z" fill="#252758"/>
</g>
<defs>
<clipPath id="clip0_70_16">
<rect width="40" height="40" fill="white"/>
</clipPath>
</defs>
</svg>
